<svg width="421" height="114" viewBox="0 0 421 114" fill="none" xmlns="http://www.w3.org/2000/svg">
<path d="M81.9677 110.636H50.7727L28.1676 73.8802H25.5237V110.636H0V8.54224H40.5179C51.3321 8.54224 72.6997 12.9979 72.6997 41.212C72.6997 60.2394 62.9802 68.4541 53.3337 71.7902L81.9677 110.636ZM46.9473 41.212C46.9473 31.8795 40.8225 29.1265 34.6629 29.1265H25.5237V53.2974H34.6629C40.8225 53.2974 46.9473 50.5446 46.9473 41.212Z" fill="#0062DF"/>
<path d="M137.618 41.3371H161.724V110.816H137.618V104.806C131.833 110.142 124.396 113.354 116.284 113.354C97.8437 113.354 82.8962 96.7815 82.8962 76.3385C82.8962 55.8956 97.8437 39.3235 116.284 39.3235C124.396 39.3235 131.833 42.5362 137.618 47.8696V41.3371ZM137.618 76.3385C137.618 67.5407 131.369 60.4072 122.932 60.4072C114.495 60.4072 107.656 67.5407 107.656 76.3385C107.656 85.1378 114.495 92.2714 122.932 92.2714C131.369 92.2714 137.618 85.1363 137.618 76.3385Z" fill="#0062DF"/>
<path d="M204.987 33.8598V41.4927H220.843V61.3434H204.987V110.822H180.882V61.3434H172.632V41.4927H180.882V32.6345C180.882 14.5482 192.933 0 210.958 0C217.042 0 221.757 2.56745 221.757 2.56745V23.9206C213.56 20.0807 204.987 19.0214 204.987 33.8598Z" fill="#0062DF"/>
<path d="M259.066 33.8598V41.4927H274.922V61.3434H259.066V110.822H234.961V61.3434H226.712V41.4927H234.961V32.6345C234.961 14.5482 247.013 0 265.037 0C271.122 0 275.837 2.56745 275.837 2.56745V23.9206C267.64 20.0807 259.066 19.0214 259.066 33.8598Z" fill="#0062DF"/>
<path d="M284.474 110.801V1.61987H308.578V110.801H284.474Z" fill="#0062DF"/>
<path d="M321.694 14.8159C321.694 7.20368 327.674 1.03076 335.05 1.03076C342.429 1.03076 348.409 7.20368 348.409 14.8159C348.409 22.4296 342.429 28.6025 335.05 28.6025C327.674 28.6025 321.694 22.4296 321.694 14.8159Z" fill="#0062DF" fill-opacity="0.5"/>
<path d="M322.931 110.769V41.4392H347.037V110.769H322.931Z" fill="#0062DF"/>
<path d="M401.755 93.3278V113.33C387.642 113.33 365.49 110.354 365.49 86.2195V62.6864H357.884V41.4304H365.49V20.6191H389.594V81.9908C389.594 86.1209 391.835 93.3278 401.755 93.3278Z" fill="#0062DF"/>
<path d="M394.183 55.186C394.183 47.5741 400.163 41.4009 407.541 41.4009C414.917 41.4009 420.897 47.5741 420.897 55.186C420.897 62.7997 414.917 68.9714 407.541 68.9714C400.163 68.9714 394.183 62.7997 394.183 55.186Z" fill="#0062DF" fill-opacity="0.5"/>
</svg>
